<?xml version="1.0" standalone="no"?><!DOCTYPE svg PUBLIC "-//W3C//DTD SVG 1.1//EN" "http://www.w3.org/Graphics/SVG/1.1/DTD/svg11.dtd"><svg class="icon" width="200px" height="200.00px" viewBox="0 0 1024 1024" version="1.1" xmlns="http://www.w3.org/2000/svg"><path d="M799.7 937.1c11.2 0 21.8-4.4 29.8-12.3l136.7-136.7 0.1-0.1c9.8-8.4 15.3-20.6 14.8-33.5-0.4-12.9-6.6-24.8-16.9-32.5l-0.2-0.2-134.4-134.3c-7.6-6.5-17.4-10.1-27.4-10.1-11.3 0-21.9 4.4-29.9 12.4-15.5 15.5-16.5 40.6-2.3 57.3l66.4 66.5h-318c-23.3 0-42.3 19-42.3 42.3s19 42.3 42.3 42.3h318l-66.6 66.6c-8 8-12.5 18.6-12.5 29.9s4.3 22 12.3 30c8.1 8 18.7 12.4 30.1 12.4zM430.9 1022.6c-29.9 0-59.7-11.4-82.4-34.1L245.7 885.8l28.2-28.3c29.1-29.2 29.1-76.7-0.1-105.8-29.1-29.1-76.6-29.2-105.8-0.1l-28.3 28.1L37 677c-45.5-45.5-45.5-119.4 0-164.9L510.9 38.2c45.5-45.5 119.4-45.5 164.9 0l85.3 85.3-29.8 28.3c-0.5 0.5-1 0.9-1.5 1.4-29.2 29.2-29.2 76.7 0 105.9 14.1 14.1 33 21.9 53 21.9s38.8-7.8 53-21.9c0.5-0.5 1-1 1.4-1.5l28.3-29.8 121.8 121.8c45.5 45.5 45.5 119.4 0 164.9l-53.8 53.8c-15.6 15.6-40.9 15.6-56.6 0-15.6-15.6-15.6-40.9 0-56.6l53.8-53.8c14.3-14.3 14.3-37.5 0-51.8l-67.6-67.6c-24 14.6-51.5 22.4-80.3 22.4-41.4 0-80.3-16.1-109.5-45.4-51.4-51.4-59.1-130.2-23-189.8l-31.1-31.1c-14.3-14.3-37.5-14.3-51.8 0L93.5 568.7c-14.3 14.3-14.3 37.5 0 51.8l49.9 49.9c59.2-34.1 136.4-25.8 186.9 24.7S389.1 822.8 355 882l49.9 49.9c14.3 14.3 37.5 14.3 51.8 0l53.5-53.5c15.6-15.6 40.9-15.6 56.6 0 15.6 15.6 15.6 40.9 0 56.6l-53.5 53.5c-22.7 22.7-52.6 34.1-82.4 34.1zM311.1 557.2c-10.8 0-21.6-4.4-29.5-13l-107-117c-14.9-16.3-13.8-41.6 2.5-56.5 16.3-14.9 41.6-13.8 56.5 2.5l107 117c14.9 16.3 13.8 41.6-2.5 56.5-7.7 7.1-17.4 10.5-27 10.5z" /></svg>